<?xml version="1.0" standalone="no"?>
<!DOCTYPE svg PUBLIC "-//W3C//DTD SVG 20010904//EN"
 "http://www.w3.org/TR/2001/REC-SVG-20010904/DTD/svg10.dtd">
<svg version="1.0" xmlns="http://www.w3.org/2000/svg"
 width="466.000000pt" height="466.000000pt" viewBox="0 0 466.000000 466.000000"
 preserveAspectRatio="xMidYMid meet">
<metadata>
Created by potrace 1.11, written by Peter Selinger 2001-2013
</metadata>
<g transform="translate(0.000000,466.000000) scale(0.100000,-0.100000)"
fill="#000000" stroke="none">
<path d="M0 2330 l0 -2330 2330 0 2330 0 0 2330 0 2330 -2330 0 -2330 0 0
-2330z m4320 20 l0 -1480 -1890 0 -1890 0 0 785 0 785 -195 0 -195 0 0 203 0
202 298 492 297 492 1788 1 1787 0 0 -1480z"/>
<path d="M890 2398 c0 -524 -3 -970 -6 -990 l-7 -38 257 0 256 0 0 775 0 775
95 0 95 0 0 -775 0 -775 255 0 255 0 0 990 0 990 -600 0 -600 0 0 -952z"/>
<path d="M2390 2360 l0 -990 245 0 245 0 0 435 c0 239 3 435 8 435 4 0 20 -48
35 -108 15 -59 44 -167 64 -239 l36 -133 193 0 193 0 12 43 c6 23 26 96 43
162 18 66 41 153 51 193 11 39 22 72 27 72 4 0 8 -193 8 -430 l0 -430 245 0
245 0 0 990 0 990 -263 0 -262 0 -145 -436 c-80 -239 -150 -436 -155 -436 -6
0 -75 196 -155 436 l-145 436 -262 0 -263 0 0 -990z"/>
</g>
</svg>
