<svg xmlns="http://www.w3.org/2000/svg" viewBox="0 0 344.2 42.72">
    <title>logo</title>
    <g id="Layer_2" data-name="Layer 2">
        <g id="Слой_1" data-name="Слой 1" fill="#ffffff">
            <rect class="cls-1" x="97.78" y="21.82" width="2.47" height="7.51"/>
            <path class="cls-2" d="M80.75,23.39H78.28v6.14h2.47Z"/>
            <rect class="cls-1" x="295.44" y="21.82" width="2.47" height="7.51"/>
            <rect class="cls-1" x="78.28" y="12.87" width="2.47" height="4.77"/>
            <rect class="cls-1" x="257.21" y="21.82" width="2.47" height="7.51"/>
            <rect class="cls-1" x="59.18" y="13.1" width="2.47" height="7.51"/>
            <polygon class="cls-2" points="129.84 0 129.17 0 127.37 0 127.37 1.74 129.84 1.74 129.84 0"/>
            <rect class="cls-1" x="324.98" width="2.47" height="1.74"/>
            <rect class="cls-1" x="198.69" y="23.92" width="2.47" height="4.77"/>
            <path class="cls-2"
                  d="M344.2,42.72V0H331.73a8,8,0,0,1-.39,1.74,6.05,6.05,0,0,1-1,1.81A5.38,5.38,0,0,1,328.68,5a4.91,4.91,0,0,1-2.43.57A5.12,5.12,0,0,1,323.74,5,5.51,5.51,0,0,1,322,3.55a5.75,5.75,0,0,1-1-1.81A8.08,8.08,0,0,1,320.7,0H134.12a8,8,0,0,1-.39,1.74,6.05,6.05,0,0,1-1,1.81A5.5,5.5,0,0,1,131.07,5a4.91,4.91,0,0,1-2.43.57A5.09,5.09,0,0,1,126.13,5a5.51,5.51,0,0,1-1.7-1.41,6,6,0,0,1-1-1.81A8.51,8.51,0,0,1,123.09,0H8.56L0,14.22v5.83H5.65V42.72Zm-27-35.81h6.94V19.73h.21l4.68-12.82h6.16V35.52h-7V22.86H328l-4.72,12.66h-6Zm-10.16,0h7.24V35.52h-7.24Zm-18.48,0h7v8.74h1.54c2.68,0,4.69.79,6,2.35a9.92,9.92,0,0,1,2,6.52v2.36a12.62,12.62,0,0,1-.6,4.22,6.38,6.38,0,0,1-1.67,2.65,5.83,5.83,0,0,1-2.53,1.37,12.33,12.33,0,0,1-3.19.4h-8.61Zm-19.6,0h7.23V17.84h2.39V6.91h7.23V35.52H278.6V24.09h-2.39V35.52H269Zm-18.64,0h7v8.75h1.54c2.67,0,4.69.78,6,2.34a9.92,9.92,0,0,1,2,6.52v2.37a12.6,12.6,0,0,1-.6,4.21,6.59,6.59,0,0,1-1.67,2.65,5.89,5.89,0,0,1-2.53,1.37,12.41,12.41,0,0,1-3.2.4h-8.61Zm-17.09,0h8.87l5.8,28.61h-7.24c-1-6.74-1.89-12.8-2.83-19.54h-.25c-.93,6.75-1.92,12.8-2.83,19.54h-7.28Zm-22.77,0h14.76v6.21h-7.52v4.77h6.57v6.2h-6.57v5.22h7.52v6.21H210.48Zm-19,0h14.84v6.21h-7.6v4.55h1.55c2.78,0,4.82.74,6.1,2.22s1.92,3.67,1.92,6.6a12.61,12.61,0,0,1-.6,4.14A7.38,7.38,0,0,1,206,33.45,6.33,6.33,0,0,1,203.47,35a9.7,9.7,0,0,1-3.14.5h-8.88Zm-17.71,0H188.5v6.21H181v4.77h6.57v6.2H181v5.22h7.52v6.21H173.74Zm-26.58,0h7.57l2,6.2,2.18,6.45h.24l2.1-6.29,2.1-6.36h7.56v28.6h-7.11V23.07h-.17l-1,3.86-.82,3h-5.5l-.86-3.12-1-3.87h-.21V35.52h-7Zm-27.55,0h6.94V19.74h.21l4.68-12.83h6.16V35.52h-7V22.86h-.21l-4.72,12.66h-6Zm-10.21,0h7.24V35.52H109.4Zm-18.48,0h7v8.75h1.53q4,0,6,2.34a9.92,9.92,0,0,1,2,6.52v2.37a12.89,12.89,0,0,1-.59,4.21,6.5,6.5,0,0,1-1.68,2.65,5.83,5.83,0,0,1-2.53,1.37,11.86,11.86,0,0,1-3.19.4H90.92Zm-19.58,0h8.82q7.62,0,7.62,7.81a8.74,8.74,0,0,1-.18,1.75A7,7,0,0,1,87,18.11a5,5,0,0,1-1,1.36,3.78,3.78,0,0,1-1.42.88v.21a4.15,4.15,0,0,1,1.62.94,4.83,4.83,0,0,1,1,1.42,6.51,6.51,0,0,1,.55,1.75A11.17,11.17,0,0,1,88,26.6q0,4.61-2,6.76t-6,2.16h-8.7Zm-19,0h8.61a12.34,12.34,0,0,1,3.19.39,5.85,5.85,0,0,1,2.53,1.38,6.48,6.48,0,0,1,1.67,2.65,12.56,12.56,0,0,1,.6,4.21v2.37a9.92,9.92,0,0,1-2,6.52q-2,2.34-6,2.34H59.34v8.75h-7Zm-17.63,0H49.44v6.21H41.92v4.77H48.5v6.2H41.92v5.22h7.52v6.21H34.69Zm-20.15,0H31.76V35.52H24.53V13.12H21.77v22.4H14.54Z"/>
        </g>
    </g>
</svg>