<?xml version="1.0" encoding="UTF-8"?>
<svg width="345px" height="61px" viewBox="0 0 345 61" version="1.1" xmlns="http://www.w3.org/2000/svg" xmlns:xlink="http://www.w3.org/1999/xlink">
    <!-- Generator: Sketch 48.2 (47327) - http://www.bohemiancoding.com/sketch -->
    <title>logo-2</title>
    <desc>Created with Sketch.</desc>
    <defs></defs>
    <g id="Page-1" stroke="none" stroke-width="1" fill="none" fill-rule="evenodd">
        <g id="logo-2" fill="#FFFFFF">
            <g>
                <rect id="Rectangle-path" fill-rule="nonzero" x="97.78" y="21.82" width="2.47" height="7.51"></rect>
                <polygon id="Shape" fill-rule="nonzero" points="80.75 23.39 78.28 23.39 78.28 29.53 80.75 29.53"></polygon>
                <rect id="Rectangle-path" fill-rule="nonzero" x="295.44" y="21.82" width="2.47" height="7.51"></rect>
                <rect id="Rectangle-path" fill-rule="nonzero" x="78.28" y="12.87" width="2.47" height="4.77"></rect>
                <rect id="Rectangle-path" fill-rule="nonzero" x="257.21" y="21.82" width="2.47" height="7.51"></rect>
                <rect id="Rectangle-path" fill-rule="nonzero" x="59.18" y="13.1" width="2.47" height="7.51"></rect>
                <polygon id="Shape" fill-rule="nonzero" points="129.84 0 129.17 0 127.37 0 127.37 1.74 129.84 1.74"></polygon>
                <rect id="Rectangle-path" fill-rule="nonzero" x="324.98" y="0" width="2.47" height="1.74"></rect>
                <rect id="Rectangle-path" fill-rule="nonzero" x="198.69" y="23.92" width="2.47" height="4.77"></rect>
                <path d="M344.2,42.72 L344.2,0 L331.73,1.53529967e-15 C331.665248,0.592721263 331.534436,1.17634581 331.34,1.74 C331.11301,2.39625085 330.774736,3.00852582 330.34,3.55 C329.892665,4.1427149 329.327472,4.63640721 328.68,5 C327.932621,5.39614338 327.095576,5.59248727 326.25,5.57 C325.378446,5.59683387 324.514479,5.40063423 323.74,5 C323.065845,4.64237722 322.473329,4.14861348 322,3.55 C321.560026,3.01205496 321.221215,2.39880675 321,1.74 C320.836738,1.17270044 320.736138,0.589217553 320.7,3.16122128e-15 L134.12,3.16122128e-15 C134.055248,0.592721263 133.924436,1.17634581 133.73,1.74 C133.50301,2.39625085 133.164736,3.00852582 132.73,3.55 C132.280174,4.14039122 131.715504,4.63362718 131.07,5 C130.322621,5.39614338 129.485576,5.59248727 128.64,5.57 C127.768317,5.59817365 126.904017,5.40189826 126.13,5 C125.473978,4.64955311 124.895695,4.16991898 124.43,3.59 C123.994427,3.04908725 123.65607,2.43666036 123.43,1.78 C123.253635,1.20045927 123.139656,0.603743538 123.09,0 L8.56,0 L0,14.22 L0,20.05 L5.65,20.05 L5.65,42.72 L344.2,42.72 Z M317.2,6.91 L324.14,6.91 L324.14,19.73 L324.35,19.73 L329.03,6.91 L335.19,6.91 L335.19,35.52 L328.19,35.52 L328.19,22.86 L328,22.86 L323.28,35.52 L317.28,35.52 L317.2,6.91 Z M307.04,6.91 L314.28,6.91 L314.28,35.52 L307.04,35.52 L307.04,6.91 Z M288.56,6.91 L295.56,6.91 L295.56,15.65 L297.1,15.65 C299.78,15.65 301.79,16.44 303.1,18 C304.516261,19.8686719 305.224828,22.1786015 305.1,24.52 L305.1,26.88 C305.140718,28.3105114 304.937824,29.7375278 304.5,31.1 C304.172191,32.1083824 303.598227,33.019164 302.83,33.75 C302.114362,34.4108566 301.244543,34.8818656 300.3,35.12 C299.258681,35.3919852 298.186234,35.5264614 297.11,35.52 L288.5,35.5202222 L288.56,6.91 Z M268.96,6.91 L276.19,6.91 L276.19,17.84 L278.58,17.84 L278.58,6.91 L285.81,6.91 L285.81,35.52 L278.6,35.52 L278.6,24.09 L276.21,24.09 L276.21,35.52 L269,35.52 L268.96,6.91 Z M250.32,6.91 L257.32,6.91 L257.32,15.66 L258.86,15.66 C261.53,15.66 263.55,16.44 264.86,18 C266.276261,19.8686719 266.984828,22.1786015 266.86,24.52 L266.86,26.89 C266.89997,28.3171919 266.697081,29.7407963 266.26,31.1 C265.924405,32.1047136 265.351557,33.013723 264.59,33.75 C263.872883,34.4087858 263.003617,34.879495 262.06,35.12 C261.015272,35.3919495 259.939524,35.5264179 258.86,35.52 L250.25,35.5202193 L250.32,6.91 Z M233.23,6.91 L242.1,6.91 L247.9,35.52 L240.66,35.52 C239.66,28.78 238.77,22.72 237.83,15.98 L237.58,15.98 C236.65,22.73 235.66,28.78 234.75,35.52 L227.47,35.52 L233.23,6.91 Z M210.46,6.91 L225.22,6.91 L225.22,13.12 L217.7,13.12 L217.7,17.89 L224.27,17.89 L224.27,24.09 L217.7,24.09 L217.7,29.31 L225.22,29.31 L225.22,35.52 L210.48,35.52 L210.46,6.91 Z M191.46,6.91 L206.3,6.91 L206.3,13.12 L198.7,13.12 L198.7,17.67 L200.25,17.67 C203.03,17.67 205.07,18.41 206.35,19.89 C207.63,21.37 208.27,23.56 208.27,26.49 C208.301893,27.8937806 208.099103,29.2930303 207.67,30.63 C207.33173,31.6832864 206.760992,32.6470489 206,33.45 C205.291375,34.1598086 204.424222,34.6910683 203.47,35 C202.45796,35.3382431 201.397044,35.5071788 200.33,35.5 L191.45,35.5002195 L191.46,6.91 Z M173.75,6.91 L188.5,6.91 L188.5,13.12 L181,13.12 L181,17.89 L187.57,17.89 L187.57,24.09 L181,24.09 L181,29.31 L188.52,29.31 L188.52,35.52 L173.74,35.52 L173.75,6.91 Z M147.17,6.91 L154.74,6.91 L156.74,13.11 L158.92,19.56 L159.16,19.56 L161.26,13.27 L163.36,6.91 L170.92,6.91 L170.92,35.51 L163.81,35.51 L163.81,23.07 L163.64,23.07 L162.64,26.93 L161.82,29.93 L156.32,29.93 L155.46,26.81 L154.46,22.94 L154.25,22.94 L154.25,35.52 L147.25,35.52 L147.17,6.91 Z M119.62,6.91 L126.56,6.91 L126.56,19.74 L126.77,19.74 L131.45,6.91 L137.61,6.91 L137.61,35.52 L130.61,35.52 L130.61,22.86 L130.4,22.86 L125.68,35.52 L119.68,35.52 L119.62,6.91 Z M109.41,6.91 L116.65,6.91 L116.65,35.52 L109.4,35.52 L109.41,6.91 Z M90.93,6.91 L97.93,6.91 L97.93,15.66 L99.46,15.66 C102.126667,15.66 104.126667,16.44 105.46,18 C106.876261,19.8686719 107.584828,22.1786015 107.46,24.52 L107.46,26.89 C107.497694,28.3163154 107.298317,29.7389926 106.87,31.1 C106.534801,32.1072686 105.957997,33.0171086 105.19,33.75 C104.474362,34.4108566 103.604543,34.8818656 102.66,35.12 C101.619751,35.3975063 100.54656,35.5320757 99.47,35.52 L90.92,35.52 L90.93,6.91 Z M71.35,6.91 L80.17,6.91 C85.25,6.91 87.79,9.51333333 87.79,14.72 C87.7890103,15.3079026 87.7287049,15.8942053 87.61,16.47 C87.4760603,17.0400283 87.2711263,17.5909984 87,18.11 C86.746155,18.6167328 86.4080034,19.0766189 86,19.47 C85.5982208,19.865566 85.1130401,20.1662414 84.58,20.35 L84.58,20.56 C85.1845749,20.7457919 85.7386854,21.0673128 86.2,21.5 C86.6163952,21.9090226 86.9552048,22.3901323 87.2,22.92 C87.4650124,23.47445 87.6501837,24.0636312 87.75,24.67 C87.8893246,25.3048348 87.9729754,25.9506185 88,26.6 C88,29.6733333 87.3333333,31.9266667 86,33.36 C84.6666667,34.7933333 82.6666667,35.5133333 80,35.52 L71.3,35.52 L71.35,6.91 Z M52.35,6.91 L60.96,6.91 C62.0357877,6.90038829 63.1082134,7.0314999 64.15,7.3 C65.0952163,7.54182653 65.9649396,8.01622102 66.68,8.68 C67.4449969,9.41347665 68.0184152,10.323392 68.35,11.33 C68.787842,12.6890282 68.9907497,14.1127639 68.95,15.54 L68.95,17.91 C69.0748279,20.2513985 68.3662606,22.5613281 66.95,24.43 C65.6166667,25.99 63.6166667,26.77 60.95,26.77 L59.34,26.77 L59.34,35.52 L52.34,35.52 L52.35,6.91 Z M34.72,6.91 L49.44,6.91 L49.44,13.12 L41.92,13.12 L41.92,17.89 L48.5,17.89 L48.5,24.09 L41.92,24.09 L41.92,29.31 L49.44,29.31 L49.44,35.52 L34.69,35.52 L34.72,6.91 Z M14.57,6.91 L31.76,6.91 L31.76,35.52 L24.53,35.52 L24.53,13.12 L21.77,13.12 L21.77,35.52 L14.54,35.52 L14.57,6.91 Z" id="Shape" fill-rule="nonzero"></path>
                <path d="M11.5234375,56.75 C10.7526003,56.7135415 10.0559927,56.5768241 9.43359375,56.3398438 C8.8111948,56.1028634 8.28125219,55.7864603 7.84375,55.390625 C7.40624781,54.9947897 7.0690116,54.5299506 6.83203125,53.9960938 C6.5950509,53.4622369 6.4765625,52.8828156 6.4765625,52.2578125 C6.4765625,51.9661444 6.50781219,51.6549496 6.5703125,51.3242188 C6.63281281,50.9934879 6.73958258,50.6640641 6.890625,50.3359375 C7.04166742,50.0078109 7.24218625,49.6940119 7.4921875,49.3945312 C7.74218875,49.0950506 8.05468562,48.8268241 8.4296875,48.5898438 C8.80468938,48.3528634 9.24609121,48.160157 9.75390625,48.0117188 C10.2617213,47.8632805 10.8515591,47.7786459 11.5234375,47.7578125 L11.5234375,46.515625 L13.8203125,46.515625 L13.8203125,47.7578125 C14.4921909,47.7786459 15.0833308,47.8632805 15.59375,48.0117188 C16.1041692,48.160157 16.5455711,48.3528634 16.9179688,48.5898438 C17.2903664,48.8268241 17.6015613,49.0950506 17.8515625,49.3945312 C18.1015638,49.6940119 18.3020826,50.0078109 18.453125,50.3359375 C18.6041674,50.6640641 18.7109372,50.9934879 18.7734375,51.3242188 C18.8359378,51.6549496 18.8671875,51.9661444 18.8671875,52.2578125 C18.8671875,52.8828156 18.7486991,53.4622369 18.5117188,53.9960938 C18.2747384,54.5299506 17.9375022,54.9947897 17.5,55.390625 C17.0624978,55.7864603 16.5325552,56.1028634 15.9101563,56.3398438 C15.2877573,56.5768241 14.5911497,56.7135415 13.8203125,56.75 L13.8203125,58 L11.5234375,58 L11.5234375,56.75 Z M11.5234375,49.421875 C10.9765598,49.4375001 10.5247414,49.5338533 10.1679688,49.7109375 C9.81119613,49.8880217 9.52994895,50.1093737 9.32421875,50.375 C9.11848855,50.6406263 8.97526082,50.9322901 8.89453125,51.25 C8.81380168,51.5677099 8.77604164,51.8776027 8.78125,52.1796875 C8.78125,52.7057318 8.86588457,53.1523419 9.03515625,53.5195312 C9.20442793,53.8867206 9.4205716,54.1861968 9.68359375,54.4179688 C9.9466159,54.6497407 10.2408838,54.8190099 10.5664062,54.9257812 C10.8919287,55.0325526 11.2109359,55.0859375 11.5234375,55.0859375 L11.5234375,49.421875 Z M13.8203125,55.0703125 C14.1328141,55.0703125 14.4518213,55.0169276 14.7773438,54.9101562 C15.1028662,54.8033849 15.3971341,54.6341157 15.6601562,54.4023438 C15.9231784,54.1705718 16.1393221,53.8697935 16.3085938,53.5 C16.4778654,53.1302065 16.5625,52.6822943 16.5625,52.15625 C16.5625,51.8593735 16.5221358,51.553387 16.4414062,51.2382812 C16.3606767,50.9231755 16.2161469,50.6341159 16.0078125,50.3710938 C15.7994781,50.1080716 15.519533,49.8880217 15.1679688,49.7109375 C14.8164045,49.5338533 14.3671902,49.4375001 13.8203125,49.421875 L13.8203125,55.0703125 Z M31.65625,46.515625 L40.0859375,46.515625 L40.0859375,48.4921875 L33.9609375,48.4921875 L33.9609375,51.0390625 L39.59375,51.0390625 L39.59375,53.0234375 L33.9609375,53.0234375 L33.9609375,55.921875 L40.359375,55.921875 L40.359375,58 L31.65625,58 L31.65625,46.515625 Z M52.2109375,56.015625 L53.21875,56.015625 C53.3385423,55.6927067 53.4570307,55.3619809 53.5742188,55.0234375 C53.6914068,54.6848941 53.8020828,54.3177103 53.90625,53.921875 C54.0104172,53.5260397 54.1054683,53.0911482 54.1914063,52.6171875 C54.2773442,52.1432268 54.3541663,51.6080759 54.421875,51.0117188 C54.4895837,50.4153616 54.5442706,49.7487016 54.5859375,49.0117188 C54.6276044,48.2747359 54.6562499,47.442713 54.671875,46.515625 L62.4921875,46.515625 L62.4921875,56.015625 L63.609375,56.015625 L63.609375,60.4609375 L61.53125,60.4609375 L61.53125,58 L54.2890625,58 L54.2890625,60.4609375 L52.2109375,60.4609375 L52.2109375,56.015625 Z M60.09375,48.4921875 L56.78125,48.4921875 C56.7760416,48.7005219 56.7695313,48.9661442 56.7617188,49.2890625 C56.7539062,49.6119808 56.7369793,49.9726543 56.7109375,50.3710938 C56.6848957,50.7695332 56.6471357,51.1992164 56.5976563,51.6601562 C56.5481768,52.1210961 56.4817713,52.5950496 56.3984375,53.0820312 C56.3151038,53.5690129 56.2096361,54.0611954 56.0820313,54.5585938 C55.9544264,55.0559921 55.7994801,55.5416643 55.6171875,56.015625 L60.09375,56.015625 L60.09375,48.4921875 Z M76.1171875,46.515625 L84.546875,46.515625 L84.546875,48.4921875 L78.421875,48.4921875 L78.421875,51.0390625 L84.0546875,51.0390625 L84.0546875,53.0234375 L78.421875,53.0234375 L78.421875,55.921875 L84.8203125,55.921875 L84.8203125,58 L76.1171875,58 L76.1171875,46.515625 Z M97.7890625,46.515625 L103.007813,46.515625 C103.617191,46.515625 104.147133,46.5989575 104.597656,46.765625 C105.048179,46.9322925 105.421874,47.1744776 105.71875,47.4921875 C106.015626,47.8098974 106.236978,48.1953102 106.382813,48.6484375 C106.528647,49.1015648 106.601563,49.6171846 106.601563,50.1953125 C106.601563,50.7317735 106.515626,51.2252582 106.34375,51.6757812 C106.171874,52.1263043 105.923179,52.5143213 105.597656,52.8398438 C105.272134,53.1653662 104.875002,53.4192699 104.40625,53.6015625 C103.937498,53.7838551 103.406253,53.875 102.8125,53.875 L100.1875,53.875 L100.1875,58 L97.7890625,58 L97.7890625,46.515625 Z M100.1875,51.890625 L102.460938,51.890625 C103.002607,51.890625 103.428384,51.7578138 103.738281,51.4921875 C104.048179,51.2265612 104.203125,50.7942738 104.203125,50.1953125 C104.203125,49.8932277 104.162761,49.6354177 104.082031,49.421875 C104.001302,49.2083323 103.886719,49.0325528 103.738281,48.8945312 C103.589843,48.7565097 103.407553,48.6549482 103.191406,48.5898438 C102.975259,48.5247393 102.731772,48.4921875 102.460938,48.4921875 L100.1875,48.4921875 L100.1875,51.890625 Z M122.578125,46.515625 L125.320312,46.515625 L129.382812,58 L126.773438,58 L126.039062,55.6328125 L121.796875,55.6328125 L121,58 L118.46875,58 L122.578125,46.515625 Z M122.4375,53.6484375 L125.367188,53.6484375 L123.9375,49.1015625 L123.90625,49.1015625 L122.4375,53.6484375 Z M148.90625,48.4921875 L145.539062,48.4921875 L145.546875,50.2265625 C145.552083,51.2734427 145.529948,52.1966106 145.480469,52.9960938 C145.430989,53.7955769 145.352865,54.4908825 145.246094,55.0820312 C145.139322,55.67318 145.003907,56.1692688 144.839844,56.5703125 C144.67578,56.9713562 144.481772,57.2929675 144.257812,57.5351562 C144.033853,57.777345 143.778647,57.9505203 143.492188,58.0546875 C143.205728,58.1588547 142.890627,58.2109375 142.546875,58.2109375 C142.265624,58.2109375 142.016928,58.1940106 141.800781,58.1601562 C141.584634,58.1263019 141.369793,58.0651046 141.15625,57.9765625 L141.148438,55.78125 C141.221355,55.8177085 141.298177,55.8476561 141.378906,55.8710938 C141.459636,55.8945314 141.539062,55.9127604 141.617188,55.9257812 C141.695313,55.9388021 141.766927,55.9479166 141.832031,55.953125 C141.897136,55.9583334 141.947916,55.9609375 141.984375,55.9609375 C142.125001,55.9609375 142.25651,55.9414064 142.378906,55.9023438 C142.501303,55.8632811 142.610677,55.7786465 142.707031,55.6484375 C142.803386,55.5182285 142.88802,55.3307304 142.960938,55.0859375 C143.033855,54.8411446 143.095052,54.515627 143.144531,54.109375 C143.194011,53.703123 143.230469,53.2005238 143.253906,52.6015625 C143.277344,52.0026012 143.289062,51.2864625 143.289062,50.453125 L143.289062,46.515625 L151.304688,46.515625 L151.304688,58 L148.90625,58 L148.90625,48.4921875 Z M166.945312,56.015625 L168.976562,56.015625 C169.195314,56.015625 169.420572,56.0000002 169.652344,55.96875 C169.884116,55.9374998 170.097655,55.8697922 170.292969,55.765625 C170.488282,55.6614578 170.648437,55.5065114 170.773438,55.3007812 C170.898438,55.0950511 170.960938,54.8203142 170.960938,54.4765625 C170.960938,54.1171857 170.89974,53.8346364 170.777344,53.6289062 C170.654947,53.4231761 170.494793,53.2682297 170.296875,53.1640625 C170.098957,53.0598953 169.876303,52.9947918 169.628906,52.96875 C169.381509,52.9427082 169.132814,52.9296875 168.882812,52.9296875 L166.945312,52.9296875 L166.945312,56.015625 Z M164.546875,46.515625 L166.945312,46.515625 L166.945312,51.0390625 L169.234375,51.0390625 C169.406251,51.0390625 169.626301,51.0442708 169.894531,51.0546875 C170.162762,51.0651042 170.450519,51.1028643 170.757812,51.1679688 C171.065106,51.2330732 171.372394,51.3359368 171.679688,51.4765625 C171.986981,51.6171882 172.265624,51.816405 172.515625,52.0742188 C172.765626,52.3320325 172.968749,52.6601543 173.125,53.0585938 C173.281251,53.4570332 173.359375,53.9479137 173.359375,54.53125 C173.359375,55.1093779 173.281251,55.5963522 173.125,55.9921875 C172.968749,56.3880228 172.769532,56.7148425 172.527344,56.9726562 C172.285155,57.23047 172.016929,57.4283847 171.722656,57.5664062 C171.428384,57.7044278 171.141928,57.8059893 170.863281,57.8710938 C170.584634,57.9361982 170.329428,57.9739583 170.097656,57.984375 C169.865884,57.9947917 169.695313,58 169.585938,58 L164.546875,58 L164.546875,46.515625 Z M186.023438,46.515625 L188.429688,46.515625 L188.429688,50.8828125 L192.9375,50.8828125 L192.9375,46.515625 L195.335938,46.515625 L195.335938,58 L192.9375,58 L192.9375,52.8671875 L188.429688,52.8671875 L188.429688,58 L186.023438,58 L186.023438,46.515625 Z M211.890625,46.515625 L214.632812,46.515625 L218.695312,58 L216.085938,58 L215.351562,55.6328125 L211.109375,55.6328125 L210.3125,58 L207.78125,58 L211.890625,46.515625 Z M211.75,53.6484375 L214.679688,53.6484375 L213.25,49.1015625 L213.21875,49.1015625 L211.75,53.6484375 Z M240.476562,58 L238.15625,58 L238.15625,53.46875 L236.015625,53.46875 C235.65104,53.46875 235.319012,53.4791666 235.019531,53.5 C234.720051,53.5208334 234.458334,53.5898432 234.234375,53.7070312 C234.010416,53.8242193 233.829428,54.0130195 233.691406,54.2734375 C233.553385,54.5338555 233.463542,54.9010393 233.421875,55.375 L233.34375,56.4609375 C233.322917,56.7109387 233.300781,56.9205721 233.277344,57.0898438 C233.253906,57.2591154 233.229167,57.399739 233.203125,57.5117188 C233.177083,57.6236985 233.151042,57.7174475 233.125,57.7929688 C233.098958,57.86849 233.075521,57.9374997 233.054688,58 L230.5625,58 C230.640625,57.8541659 230.701823,57.7291672 230.746094,57.625 C230.790365,57.5208328 230.826823,57.4114589 230.855469,57.296875 C230.884115,57.1822911 230.907552,57.0494799 230.925781,56.8984375 C230.944011,56.7473951 230.966146,56.5494804 230.992188,56.3046875 L231.101562,55.21875 C231.138021,54.885415 231.183593,54.5820326 231.238281,54.3085938 C231.292969,54.0351549 231.378906,53.7916677 231.496094,53.578125 C231.613282,53.3645823 231.776041,53.1796883 231.984375,53.0234375 C232.192709,52.8671867 232.468748,52.7343755 232.8125,52.625 C232.661458,52.5729164 232.498699,52.5052088 232.324219,52.421875 C232.149739,52.3385412 231.966147,52.1979177 231.773438,52 C231.523436,51.7499988 231.325522,51.4440122 231.179688,51.0820312 C231.033853,50.7200503 230.960938,50.3229188 230.960938,49.890625 C230.960938,49.6197903 230.989583,49.3606783 231.046875,49.1132812 C231.104167,48.8658842 231.184895,48.6328136 231.289062,48.4140625 C231.39323,48.1953114 231.516926,47.9947926 231.660156,47.8125 C231.803386,47.6302074 231.958332,47.4687507 232.125,47.328125 C232.364585,47.124999 232.626301,46.9687505 232.910156,46.859375 C233.194012,46.7499995 233.48828,46.6692711 233.792969,46.6171875 C234.097658,46.5651039 234.410155,46.5351563 234.730469,46.5273438 C235.050783,46.5195312 235.367186,46.515625 235.679688,46.515625 L240.476562,46.515625 L240.476562,58 Z M238.15625,48.53125 L235.453125,48.53125 C235.421875,48.53125 235.359375,48.5325521 235.265625,48.5351562 C235.171875,48.5377604 235.066407,48.5429687 234.949219,48.5507812 C234.832031,48.5585938 234.713542,48.5703124 234.59375,48.5859375 C234.473958,48.6015626 234.372396,48.6249998 234.289063,48.65625 C234.184895,48.6979169 234.078126,48.7539059 233.96875,48.8242188 C233.859374,48.8945316 233.759115,48.9869786 233.667969,49.1015625 C233.576822,49.2161464 233.502604,49.3541659 233.445313,49.515625 C233.388021,49.6770841 233.359375,49.8697905 233.359375,50.09375 C233.359375,50.3437512 233.394531,50.5533846 233.464844,50.7226562 C233.535157,50.8919279 233.628906,51.0325515 233.746094,51.1445312 C233.863282,51.256511 233.996093,51.3424476 234.144531,51.4023438 C234.292969,51.4622399 234.44401,51.5052082 234.597656,51.53125 C234.751303,51.5572918 234.902343,51.5729166 235.050781,51.578125 C235.199219,51.5833334 235.333333,51.5859375 235.453125,51.5859375 L238.15625,51.5859375 L238.15625,48.53125 Z M276.59375,50.2890625 C276.5625,50.179687 276.523438,50.0533861 276.476562,49.9101562 C276.429687,49.7669264 276.365886,49.6223966 276.285156,49.4765625 C276.204427,49.3307284 276.102865,49.1875007 275.980469,49.046875 C275.858072,48.9062493 275.70573,48.7812505 275.523438,48.671875 C275.341145,48.5624995 275.122397,48.4739587 274.867188,48.40625 C274.611978,48.3385413 274.312502,48.3046875 273.96875,48.3046875 C273.822916,48.3046875 273.651043,48.3229165 273.453125,48.359375 C273.255207,48.3958335 273.052084,48.4648432 272.84375,48.5664062 C272.635416,48.6679693 272.429689,48.8098949 272.226562,48.9921875 C272.023436,49.1744801 271.842449,49.4127589 271.683594,49.7070312 C271.524739,50.0013036 271.395834,50.3567688 271.296875,50.7734375 C271.197916,51.1901062 271.148438,51.684893 271.148438,52.2578125 C271.148438,52.8776073 271.213541,53.4322892 271.34375,53.921875 C271.473959,54.4114608 271.661457,54.8255191 271.90625,55.1640625 C272.151043,55.5026059 272.446613,55.7617179 272.792969,55.9414062 C273.139325,56.1210946 273.531248,56.2109375 273.96875,56.2109375 C274.473961,56.2109375 274.885415,56.1328133 275.203125,55.9765625 C275.520835,55.8203117 275.774739,55.6302095 275.964844,55.40625 C276.154949,55.1822905 276.296875,54.9479179 276.390625,54.703125 C276.484375,54.4583321 276.557291,54.2447926 276.609375,54.0625 L278.992188,54.0625 C278.861979,54.7812536 278.645835,55.4049453 278.34375,55.9335938 C278.041665,56.4622422 277.674481,56.9010399 277.242188,57.25 C276.809894,57.5989601 276.324221,57.8593741 275.785156,58.03125 C275.246091,58.2031259 274.671878,58.2890625 274.0625,58.2890625 C273.208329,58.2890625 272.451826,58.1471368 271.792969,57.8632812 C271.134111,57.5794257 270.579429,57.1744818 270.128906,56.6484375 C269.678383,56.1223932 269.335939,55.488285 269.101562,54.7460938 C268.867186,54.0039025 268.75,53.1744838 268.75,52.2578125 C268.75,51.5494756 268.817708,50.908857 268.953125,50.3359375 C269.088542,49.763018 269.277343,49.2539085 269.519531,48.8085938 C269.76172,48.363279 270.046873,47.9778662 270.375,47.6523438 C270.703127,47.3268213 271.061196,47.0585948 271.449219,46.8476562 C271.837242,46.6367177 272.24479,46.4804693 272.671875,46.3789062 C273.09896,46.2773432 273.531248,46.2265625 273.96875,46.2265625 C274.593753,46.2265625 275.148435,46.291666 275.632812,46.421875 C276.11719,46.552084 276.541665,46.7265614 276.90625,46.9453125 C277.270835,47.1640636 277.58203,47.4140611 277.839844,47.6953125 C278.097658,47.9765639 278.308593,48.2669256 278.472656,48.5664062 C278.63672,48.8658869 278.759114,49.1653631 278.839844,49.4648438 C278.920573,49.7643244 278.971354,50.0390613 278.992188,50.2890625 L276.59375,50.2890625 Z M291.914062,46.515625 L300.34375,46.515625 L300.34375,48.4921875 L294.21875,48.4921875 L294.21875,51.0390625 L299.851562,51.0390625 L299.851562,53.0234375 L294.21875,53.0234375 L294.21875,55.921875 L300.617188,55.921875 L300.617188,58 L291.914062,58 L291.914062,46.515625 Z M312.46875,46.515625 L321.875,46.515625 L321.875,48.4921875 L318.367188,48.4921875 L318.367188,58 L315.96875,58 L315.96875,48.4921875 L312.46875,48.4921875 L312.46875,46.515625 Z M336.773438,56.015625 L338.804688,56.015625 C339.023439,56.015625 339.248697,56.0000002 339.480469,55.96875 C339.712241,55.9374998 339.92578,55.8697922 340.121094,55.765625 C340.316407,55.6614578 340.476562,55.5065114 340.601562,55.3007812 C340.726563,55.0950511 340.789062,54.8203142 340.789062,54.4765625 C340.789062,54.1171857 340.727865,53.8346364 340.605469,53.6289062 C340.483072,53.4231761 340.322918,53.2682297 340.125,53.1640625 C339.927082,53.0598953 339.704428,52.9947918 339.457031,52.96875 C339.209634,52.9427082 338.960939,52.9296875 338.710938,52.9296875 L336.773438,52.9296875 L336.773438,56.015625 Z M334.375,46.515625 L336.773438,46.515625 L336.773438,51.0390625 L339.0625,51.0390625 C339.234376,51.0390625 339.454426,51.0442708 339.722656,51.0546875 C339.990887,51.0651042 340.278644,51.1028643 340.585938,51.1679688 C340.893231,51.2330732 341.200519,51.3359368 341.507812,51.4765625 C341.815106,51.6171882 342.093749,51.816405 342.34375,52.0742188 C342.593751,52.3320325 342.796874,52.6601543 342.953125,53.0585938 C343.109376,53.4570332 343.1875,53.9479137 343.1875,54.53125 C343.1875,55.1093779 343.109376,55.5963522 342.953125,55.9921875 C342.796874,56.3880228 342.597657,56.7148425 342.355469,56.9726562 C342.11328,57.23047 341.845054,57.4283847 341.550781,57.5664062 C341.256509,57.7044278 340.970053,57.8059893 340.691406,57.8710938 C340.412759,57.9361982 340.157553,57.9739583 339.925781,57.984375 C339.694009,57.9947917 339.523438,58 339.414062,58 L334.375,58 L334.375,46.515625 Z" id="ФЕДЕРАЛЬНАЯ-СЕТЬ"></path>
            </g>
        </g>
    </g>
</svg>