<svg xmlns="http://www.w3.org/2000/svg" viewBox="0 0 41.54 39.57">
    <title>award</title>
    <g id="Layer_2" data-name="Layer 2">
        <g id="Слой_1" data-name="Слой 1">
            <path d="M41.28,6.54,35,.26A.89.89,0,0,0,34.37,0H7.17a.89.89,0,0,0-.63.26L.26,6.54A.88.88,0,0,0,.15,7.66l13.14,20a8.3,8.3,0,1,0,15,0l13.14-20A.88.88,0,0,0,41.28,6.54ZM7.54,1.78H34l4.51,4.5H3ZM20.77,23h0L11,8.06H30.58L20.78,23ZM2.53,8.06H8.84l10,15.15A8.29,8.29,0,0,0,14.34,26ZM20.77,37.79a6.52,6.52,0,1,1,6.52-6.52A6.52,6.52,0,0,1,20.77,37.79Zm2-14.58,10-15.15H39L27.2,26A8.29,8.29,0,0,0,22.75,23.21Z"/>
            <path d="M21.07,28H19.66a.89.89,0,0,0,0,1.78h.52v4.8a.89.89,0,0,0,1.78,0V28.91A.89.89,0,0,0,21.07,28Z"/>
        </g>
    </g>
</svg>