<svg xmlns="http://www.w3.org/2000/svg" viewBox="0 0 49.9 49.91">
    <title>box</title>
    <g id="Layer_2" data-name="Layer 2">
        <g id="Слой_1" data-name="Слой 1">
            <path d="M1.46,8.87A1.46,1.46,0,0,0,2.92,7.41V2.92H7.31A1.46,1.46,0,0,0,7.31,0H1.46A1.46,1.46,0,0,0,0,1.46v6A1.46,1.46,0,0,0,1.46,8.87Z"/>
            <path d="M48.43,0H42.59a1.46,1.46,0,0,0,0,2.92H47V7.41a1.47,1.47,0,0,0,2.93,0V1.46A1.46,1.46,0,0,0,48.43,0Z"/>
            <path d="M7.31,47H2.92V42.49a1.46,1.46,0,0,0-2.92,0v5.94A1.46,1.46,0,0,0,1.46,49.9H7.31a1.47,1.47,0,0,0,0-2.93Z"/>
            <path d="M48.43,41A1.46,1.46,0,0,0,47,42.49V47H42.59a1.47,1.47,0,0,0,0,2.93h5.84a1.47,1.47,0,0,0,1.47-1.47V42.49A1.46,1.46,0,0,0,48.43,41Z"/>
            <path d="M46,37.92a1.4,1.4,0,0,0,.73-1.25V13.27h0A1.47,1.47,0,0,0,46,12L25.68.2a1.42,1.42,0,0,0-1.46,0L3.85,12a1.47,1.47,0,0,0-.73,1.27h0V36.65a1.47,1.47,0,0,0,.74,1.28L24.22,49.71a1.43,1.43,0,0,0,.73.2,1.4,1.4,0,0,0,.73-.2L46,37.93Zm-22.55,8-16-9.25L19.83,29.6a1.46,1.46,0,0,0-1.46-2.54L6,34.13V15.78l17.45,10ZM25,23.27l-17.44-10L25,3.15l17.43,10.1ZM43.86,34.13,31.52,27.06a1.46,1.46,0,0,0-1.45,2.54l12.31,7.06-16,9.25V25.8l17.45-10Z"/>
        </g>
    </g>
</svg>