<svg xmlns="http://www.w3.org/2000/svg" viewBox="0 0 34.46 37.1">
    <title>cart</title>
    <g id="Layer_2" data-name="Layer 2">
        <g id="Слой_1" data-name="Слой 1">
            <path d="M18.42,16.7a.89.89,0,0,0,.65.27.92.92,0,0,0,.65-.27l5.65-5.65a.92.92,0,0,0-1.3-1.3l-5,5-2-2a.92.92,0,1,0-1.3,1.3Z"/>
            <path d="M9.77,24.35H30.34a4.12,4.12,0,0,0,4.12-4.11V11.57a.92.92,0,0,0-1.84,0v8.66a2.28,2.28,0,0,1-2.28,2.28H9.77a2.28,2.28,0,0,1-2.28-2.28v-17a.35.35,0,0,0,0-.06.14.14,0,0,0,0-.06V3l0-.06V3a.14.14,0,0,0,0-.06s0,0,0,0l0,0a.05.05,0,0,0,0,0l0,0,0,0,0,0,0-.05h0s0,0,0,0l0,0,0,0L7,2.51v0l-.09-.05L1.27.07A.92.92,0,0,0,.07.56a.92.92,0,0,0,.49,1.2L5.65,3.91V26.68a4.12,4.12,0,0,0,3.77,4.1A4,4,0,0,0,8.74,33a4.07,4.07,0,0,0,8.14,0,4,4,0,0,0-.67-2.23H26A4,4,0,0,0,25.29,33,4.07,4.07,0,1,0,29.36,29H9.77a2.29,2.29,0,0,1-2.28-2.28v-3a4.14,4.14,0,0,0,2.28.69ZM15,33a2.23,2.23,0,1,1-2.23-2.23A2.23,2.23,0,0,1,15,33Zm16.54,0a2.23,2.23,0,1,1-2.23-2.23A2.23,2.23,0,0,1,31.58,33Z"/>
        </g>
    </g>
</svg>