<svg xmlns="http://www.w3.org/2000/svg" viewBox="0 0 49.71 27.19">
    <title>delivery</title>
    <g id="Layer_2" data-name="Layer 2">
        <g id="Слой_1" data-name="Слой 1">
            <path d="M47.52,6.24A7.21,7.21,0,0,0,42.14,4H37V1.22A1.22,1.22,0,0,0,35.81,0H11.44a1.22,1.22,0,0,0-1.22,1.22V5.47H5.47a1.22,1.22,0,0,0,0,2.44h6a1.22,1.22,0,0,0,1.22-1.22V2.44H34.6V21.57H23a4.09,4.09,0,0,0-7.6,0,1.31,1.31,0,0,0-.27,0H12.67V17.31a1.22,1.22,0,0,0-1.22-1.22h-6a1.22,1.22,0,0,0,0,2.44h4.75v4.25A1.22,1.22,0,0,0,11.44,24h3.71a4.1,4.1,0,0,0,8,0H37.77a4.1,4.1,0,0,0,8,0h2.73a1.22,1.22,0,0,0,1.22-1.22V12.64a9.25,9.25,0,0,0-2.19-6.4ZM19.15,24.76a1.66,1.66,0,1,1,1.66-1.65,1.65,1.65,0,0,1-1.66,1.65Zm22.62,0a1.66,1.66,0,1,1,1.65-1.65,1.65,1.65,0,0,1-1.65,1.65Zm5.5-3.19H45.56a4.09,4.09,0,0,0-7.59,0H37V6.43h5.11c3.21,0,5.12,2.33,5.12,6.22Z"/>
            <path d="M21,14.29a1.22,1.22,0,0,0,.86,2.08,1.27,1.27,0,0,0,.87-.35l3.15-3.16.07-.08,0,0,0-.05,0-.06,0,0,0-.06s0,0,0,0,0,0,0-.06,0,0,0-.05a.15.15,0,0,0,0-.07s0,0,0-.06,0,0,0-.07,0,0,0-.05a1,1,0,0,0,0-.24.09.09,0,0,0,0,0s0,0,0-.07,0-.05,0-.07,0,0,0-.06,0,0,0,0,0,0,0-.06,0,0,0-.05l0-.06,0-.05,0-.06,0,0,0-.05a.71.71,0,0,1-.07-.09l-3-3a1.24,1.24,0,0,0-1.73,0,1.22,1.22,0,0,0,0,1.73l.91.91H1.22a1.22,1.22,0,1,0,0,2.44H22Z"/>
        </g>
    </g>
</svg>