<svg xmlns="http://www.w3.org/2000/svg" viewBox="0 0 41.27 42.61">
    <title>equipment</title>
    <g id="Layer_2" data-name="Layer 2">
        <g id="Слой_1" data-name="Слой 1">
            <path d="M40.18,0H1.09a1.09,1.09,0,0,0,0,2.18H3.45V41.49a1.08,1.08,0,0,0,.57,1,1.1,1.1,0,0,0,1.12-.05l4.73-3.16,4.76,3.17a1.11,1.11,0,0,0,1.21,0l4.73-3.16,4.76,3.16a1.05,1.05,0,0,0,1.2,0l4.74-3.15L36,42.42a1.15,1.15,0,0,0,.6.19,1.18,1.18,0,0,0,.52-.13,1.1,1.1,0,0,0,.58-1l0-39.3h2.48a1.09,1.09,0,0,0,1.09-1.09A1.12,1.12,0,0,0,40.18,0Zm-8.3,37a1.07,1.07,0,0,0-1.21,0l-4.74,3.16L21.18,37A1.07,1.07,0,0,0,20,37l-4.74,3.15L10.48,37a1.07,1.07,0,0,0-1.21,0L5.63,39.44V2.17h29.9V39.45Z"/>
            <path d="M22.07,15.23H10.64a1.1,1.1,0,0,0,0,2.19H22.07a1.1,1.1,0,0,0,0-2.19Z"/>
            <path d="M19.21,21.21a1.09,1.09,0,1,0,0-2.18H10.64a1.09,1.09,0,1,0,0,2.18Z"/>
            <path d="M30.63,15.23H27.78a1.1,1.1,0,0,0-1.09,1.1,1.09,1.09,0,0,0,1.09,1.09h2.85a1.1,1.1,0,0,0,0-2.19Z"/>
            <path d="M30.63,19H27.78a1.09,1.09,0,1,0,0,2.18h2.85a1.09,1.09,0,0,0,0-2.18Z"/>
            <path d="M22.07,6.48H10.64a1.09,1.09,0,0,0,0,2.18H22.07a1.09,1.09,0,0,0,0-2.18Z"/>
            <path d="M19.21,12.44a1.09,1.09,0,0,0,0-2.18H10.64a1.09,1.09,0,0,0,0,2.18Z"/>
            <path d="M30.63,6.48H27.78a1.09,1.09,0,0,0,0,2.18h2.85a1.09,1.09,0,0,0,0-2.18Z"/>
            <path d="M30.63,10.26H27.78a1.09,1.09,0,1,0,0,2.18h2.85a1.09,1.09,0,0,0,0-2.18Z"/>
            <path d="M22.07,24.1H10.64a1.09,1.09,0,1,0,0,2.18H22.07a1.09,1.09,0,1,0,0-2.18Z"/>
            <path d="M19.21,27.88H10.64a1.09,1.09,0,0,0,0,2.18h8.57a1.09,1.09,0,0,0,0-2.18Z"/>
            <path d="M30.63,24.1H27.78a1.09,1.09,0,1,0,0,2.18h2.85a1.09,1.09,0,0,0,0-2.18Z"/>
            <path d="M30.63,27.88H27.78a1.09,1.09,0,0,0,0,2.18h2.85a1.09,1.09,0,0,0,0-2.18Z"/>
        </g>
    </g>
</svg>