<svg xmlns="http://www.w3.org/2000/svg" viewBox="0 0 42.74 42.74">
    <title>hand</title>
    <g id="Layer_2" data-name="Layer 2">
        <g id="Слой_1" data-name="Слой 1">
            <path d="M39,22.7a3.76,3.76,0,0,0-2.73,1.19h0l-6.18,6.5a3.77,3.77,0,0,0-3.6-2.68H20.59a3.31,3.31,0,0,1-2.2-.83,8.8,8.8,0,0,0-10.81-.6,1.25,1.25,0,0,0-1.24-1.07H1.25A1.25,1.25,0,0,0,0,26.46v15a1.25,1.25,0,0,0,1.25,1.25H6.34a1.25,1.25,0,0,0,1.23-1,28.94,28.94,0,0,0,7.63,1H26.46a8.8,8.8,0,0,0,7-3.49L42,28.75l0,0A3.77,3.77,0,0,0,39,22.7ZM5.09,40.23H2.5V27.71H5.09ZM40,27.2,31.5,37.69l0,0a6.29,6.29,0,0,1-5,2.5H15.2a26.36,26.36,0,0,1-7.12-1l-.48-.13V29.53l.87-.77a6.28,6.28,0,0,1,8.27,0,5.82,5.82,0,0,0,3.85,1.46h5.87a1.25,1.25,0,0,1,0,2.5h-9a1.26,1.26,0,0,0,0,2.51H27.3A3.77,3.77,0,0,0,30,34l8-8.42h0a1.2,1.2,0,0,1,.91-.4A1.26,1.26,0,0,1,40,27.2Z"/>
            <path d="M13.24,19.34l10,5.71a1.23,1.23,0,0,0,1.23,0l10-5.7a1.25,1.25,0,0,0,.63-1.09V6.76h0a1.23,1.23,0,0,0-.65-1.08L24.48.16a1.24,1.24,0,0,0-1.21,0l-10,5.51a1.27,1.27,0,0,0-.65,1.08h0V18.25h0A1.26,1.26,0,0,0,13.24,19.34Zm19.4-1.81L25.13,21.8V13.19l7.51-4.27ZM23.87,2.68l7.46,4.1L23.87,11,16.42,6.78ZM15.11,8.92l7.51,4.27V21.8l-7.51-4.27Z"/>
        </g>
    </g>
</svg>