<svg xmlns="http://www.w3.org/2000/svg" viewBox="0 0 56.13 49.01">
    <title>house</title>
    <g id="Layer_2" data-name="Layer 2">
        <g id="Слой_1" data-name="Слой 1">
            <path d="M39.88,26.69H32.25a3.79,3.79,0,0,0-3.78,3.79v5.85a3.79,3.79,0,0,0,3.78,3.78h7.63a3.79,3.79,0,0,0,3.79-3.78V30.48a3.79,3.79,0,0,0-3.79-3.79Zm1,9.64a1,1,0,0,1-1,1H32.25a1,1,0,0,1-1-1V30.48a1,1,0,0,1,1-1h7.63a1,1,0,0,1,1,1Z"/>
            <path d="M56.13,16.06a1.26,1.26,0,0,0-.18-.68L47.6.7A1.39,1.39,0,0,0,46.41,0H9.72a1.35,1.35,0,0,0-1.2.7L.18,15.38a1.47,1.47,0,0,0-.18.68,8,8,0,0,0,4.82,7.36V47.63A1.38,1.38,0,0,0,6.19,49H49.93a1.38,1.38,0,0,0,1.38-1.38v-24a.39.39,0,0,0,0-.15,8.06,8.06,0,0,0,4.84-7.38ZM10.52,2.76H45.6l6.53,11.49H4ZM40,17a5.29,5.29,0,0,1-10.41,0ZM26.61,17a5.3,5.3,0,0,1-10.43,0ZM2.84,17H13.27A5.3,5.3,0,0,1,2.84,17ZM23.12,46.26H15.21V31.4a2,2,0,0,1,2-2h4a2,2,0,0,1,2,2V46.26Zm25.43,0H25.88V31.4a4.72,4.72,0,0,0-4.72-4.71h-4a4.72,4.72,0,0,0-4.71,4.71V46.27H7.57V24.1h.48a8,8,0,0,0,6.68-3.56,8,8,0,0,0,13.35,0,8,8,0,0,0,13.33,0,8,8,0,0,0,6.67,3.56h.47Zm-.47-24.9A5.3,5.3,0,0,1,42.87,17H53.3a5.32,5.32,0,0,1-5.22,4.36Z"/>
        </g>
    </g>
</svg>