<svg xmlns="http://www.w3.org/2000/svg" viewBox="0 0 43.31 43.31">
    <title>play</title>
    <g id="Layer_2" data-name="Layer 2">
        <g id="Слой_1" data-name="Слой 1">
            <g id="_Group_" data-name="&lt;Group&gt;">
                <path id="_Compound_Path_" data-name="&lt;Compound Path&gt;" class="cls-1"
                      d="M30.34,20.9,18.39,12.73a.91.91,0,0,0-1.44.76V29.82a.92.92,0,0,0,1.44.76l12-8.16a.93.93,0,0,0,0-1.52ZM18.8,28.08V15.23l9.38,6.43Z"/>
                <path id="_Compound_Path_2" data-name="&lt;Compound Path&gt;" class="cls-1"
                      d="M21.66,0A21.66,21.66,0,1,0,43.31,21.66,21.68,21.68,0,0,0,21.66,0Zm0,41.46a19.81,19.81,0,1,1,19.8-19.8,19.82,19.82,0,0,1-19.8,19.8Z"/>
            </g>
        </g>
    </g>
</svg>