<svg xmlns="http://www.w3.org/2000/svg" viewBox="0 0 46.45 49.44">
    <title>project</title>
    <g id="Layer_2" data-name="Layer 2">
        <g id="Слой_1" data-name="Слой 1">
            <path d="M42.1,0H4.35A4.35,4.35,0,0,0,0,4.35V45.1a4.35,4.35,0,0,0,4.35,4.34h32a1.46,1.46,0,0,0,1-.42L46,40.33h0a1.47,1.47,0,0,0,.43-1V4.35A4.35,4.35,0,0,0,42.1,0ZM37.76,44.5V40.75H41.5Zm5.79-6.65H36.31a1.45,1.45,0,0,0-1.45,1.45v7.24H4.35A1.45,1.45,0,0,1,2.9,45.1V4.35A1.45,1.45,0,0,1,4.35,2.9H42.1a1.45,1.45,0,0,1,1.45,1.45Z"/>
            <path d="M14.58,20.38h8.94a4.35,4.35,0,0,0,8.19,0H32A5.8,5.8,0,1,0,32,8.79H17.23a4.35,4.35,0,1,0,0,2.89H32a2.9,2.9,0,0,1,0,5.8h-.25a4.34,4.34,0,0,0-8.19,0H14.58a5.8,5.8,0,0,0,0,11.59h.25a4.35,4.35,0,0,0,8.19,0h9.79l-.42.42a1.45,1.45,0,0,0,1,2.47,1.48,1.48,0,0,0,1-.42l2.89-2.9a1.44,1.44,0,0,0,0-2.05L34.44,23.7a1.45,1.45,0,0,0-2,2l.42.43H23a4.34,4.34,0,0,0-8.19,0h-.25a2.9,2.9,0,1,1,0-5.79Zm-1.45-8.7a1.45,1.45,0,1,1,1.45-1.44A1.45,1.45,0,0,1,13.13,11.68Zm14.49,5.8a1.45,1.45,0,1,1-1.45,1.45A1.45,1.45,0,0,1,27.62,17.48Zm-8.69,8.69a1.45,1.45,0,1,1-1.45,1.45A1.45,1.45,0,0,1,18.93,26.17Z"/>
            <path d="M10.24,37.85H16A1.45,1.45,0,1,0,16,35H10.24a1.45,1.45,0,1,0,0,2.89Z"/>
            <path d="M21.82,40.75H10.24a1.45,1.45,0,1,0,0,2.9H21.82a1.45,1.45,0,0,0,0-2.9Z"/>
        </g>
    </g>
</svg>