<svg xmlns="http://www.w3.org/2000/svg" viewBox="0 0 47.86 47.86">
    <title>size</title>
    <g id="Layer_2" data-name="Layer 2">
        <g id="Слой_1" data-name="Слой 1">
            <path d="M47.86,1.39A1.4,1.4,0,0,0,46.46,0H23.84a1.41,1.41,0,0,0-1,.41h0l-8.41,8.5a1.45,1.45,0,0,0-.41,1V32.34h0a1.41,1.41,0,0,0,1.4,1.4H38.05a1.42,1.42,0,0,0,1-.41h0l8.41-8.42h0a1.35,1.35,0,0,0,.41-1V1.4ZM22.44,4.81v3.7H18.78Zm-5.61,6.5h5.61v12L16.83,29ZM36.65,30.94H18.81l5.61-5.61H36.65Zm0-8.41H25.24V11.31H36.65Zm.81-14H25.24V2.8H43.1Zm2,20.45V25.33h3.63Zm5.61-6.43H39.45v-12l5.61-5.68Z"/>
            <path d="M46.46,36.55H11.22V1.4A1.4,1.4,0,0,0,9.82,0H1.4A1.4,1.4,0,0,0,0,1.4V46.46H0a1.4,1.4,0,0,0,1.4,1.4H46.46a1.39,1.39,0,0,0,1.4-1.4V38A1.4,1.4,0,0,0,46.46,36.55ZM2.8,2.8H8.41V5.7H7A1.41,1.41,0,0,0,7,8.51h1.4v2.8H7a1.41,1.41,0,0,0,0,2.81h1.4v2.8H7a1.4,1.4,0,0,0,0,2.8h1.4v2.81H7a1.4,1.4,0,0,0,0,2.8h1.4v2.81H7a1.4,1.4,0,1,0,0,2.8h1.4v2.81H7a1.4,1.4,0,0,0,0,2.8h1.4v.83L2.8,43.05ZM45.06,45.06H4.76l5.64-5.7h.82v1.4a1.4,1.4,0,0,0,2.8,0v-1.4h2.81v1.4a1.4,1.4,0,1,0,2.8,0v-1.4h2.81v1.4a1.4,1.4,0,0,0,2.8,0v-1.4h2.9v1.4a1.4,1.4,0,0,0,2.8,0v-1.4h2.81v1.4a1.4,1.4,0,0,0,2.8,0v-1.4h2.9v1.4a1.4,1.4,0,0,0,2.8,0v-1.4h2.81Z"/>
        </g>
    </g>
</svg>