<svg xmlns="http://www.w3.org/2000/svg" viewBox="0 0 43.2 38.14">
    <title>sound</title>
    <g id="Layer_2" data-name="Layer 2">
        <g id="Слой_1" data-name="Слой 1">
            <path d="M43.2,15.09a6.07,6.07,0,0,0-5.28-6V2.14A2.13,2.13,0,0,0,34.74.28,49.71,49.71,0,0,1,14,6.5l-6.69,0A3.26,3.26,0,0,0,4.07,9.41H2.71A2.71,2.71,0,0,0,0,12.12v5.94a2.71,2.71,0,0,0,2.71,2.71H4.07A3.29,3.29,0,0,0,6,23.37l4.85,13.38a2.11,2.11,0,0,0,2,1.39H17.7a2.12,2.12,0,0,0,2-2.83l-4.17-11.5A49.7,49.7,0,0,1,34.74,29.9a2.09,2.09,0,0,0,1,.28A2.14,2.14,0,0,0,37.92,28V21.09A6.07,6.07,0,0,0,43.2,15.09ZM6.13,9.8A1.18,1.18,0,0,1,7.31,8.62H13V21.56H7.23a1.07,1.07,0,0,1-.4-.09,1.19,1.19,0,0,1-.7-1.08V9.8Zm-4,8.26V12.12a.62.62,0,0,1,.62-.62H4.05v7.18H2.71A.62.62,0,0,1,2.09,18.06Zm15.63,18H12.83l0,0L8.31,23.64h4.93L17.72,36S17.73,36,17.72,36.05Zm18.12-8s0,0,0,0a0,0,0,0,1-.05,0,51.75,51.75,0,0,0-20.69-6.41V8.51A51.91,51.91,0,0,0,35.76,2.1a0,0,0,0,1,.05,0s0,0,0,0ZM37.92,19V11.2a4,4,0,0,1,0,7.78Z"/>
        </g>
    </g>
</svg>