<svg xmlns="http://www.w3.org/2000/svg" viewBox="0 0 44.84 47.67">
    <title>support</title>
    <g id="Layer_2" data-name="Layer 2">
        <g id="Слой_1" data-name="Слой 1">
            <path d="M38.73,18.13V16.3A16.71,16.71,0,0,0,34.36,4.81,15,15,0,0,0,23.19,0H21.67A15,15,0,0,0,10.5,4.81,16.71,16.71,0,0,0,6.13,16.3v1.83A6.57,6.57,0,0,0,0,24.68v2.86A6.56,6.56,0,0,0,6.56,34.1h3.7a1.2,1.2,0,0,0,1.2-1.2V19.31a1.2,1.2,0,0,0-1.2-1.2H8.53V16.3c0-7.93,5.65-13.9,13.13-13.9h1.52c7.49,0,13.13,6,13.13,13.9v1.81H34.58a1.2,1.2,0,0,0-1.2,1.2V32.89a1.2,1.2,0,0,0,1.2,1.2h1.69c-.49,6.27-4.81,7.73-6.81,8.06a4.24,4.24,0,0,0-4-2.92h-3a4.22,4.22,0,0,0,0,8.44h3a4.23,4.23,0,0,0,4.07-3.1,11.35,11.35,0,0,0,4.07-1.39c2.18-1.27,4.75-3.87,5.09-9.1a6.56,6.56,0,0,0,6.16-6.55V24.67a6.54,6.54,0,0,0-6.11-6.54ZM9.07,31.69H6.58a4.16,4.16,0,0,1-4.16-4.16V24.67a4.16,4.16,0,0,1,4.16-4.16H9.07ZM25.45,45.27h-3a1.82,1.82,0,0,1,0-3.63h3a1.82,1.82,0,0,1,0,3.63Zm17-17.74a4.16,4.16,0,0,1-4.16,4.16H35.8V20.51h2.49a4.16,4.16,0,0,1,4.16,4.16Z"/>
        </g>
    </g>
</svg>