<svg xmlns="http://www.w3.org/2000/svg" viewBox="0 0 45.78 40.9">
    <title>teaching</title>
    <g id="Layer_2" data-name="Layer 2">
        <g id="Слой_1" data-name="Слой 1">
            <path d="M17.22,8.48l5,3.67a1.19,1.19,0,0,0,.7.22,1.29,1.29,0,0,0,.7-.22l5-3.67a1.19,1.19,0,0,0,.48-1V1.18A1.18,1.18,0,0,0,27.84,0H17.93a1.18,1.18,0,0,0-1.18,1.18V7.53a1.19,1.19,0,0,0,.47,1ZM19.1,2.36h7.58V6.93l-3.79,2.8L19.1,6.94Z"/>
            <path d="M40.84,5H32.05a1.18,1.18,0,1,0,0,2.36h8.79A2.58,2.58,0,0,1,43.42,10V36a2.58,2.58,0,0,1-2.58,2.57H4.93A2.58,2.58,0,0,1,2.36,36V10A2.58,2.58,0,0,1,4.93,7.37h8.79a1.18,1.18,0,0,0,0-2.36H4.93A4.94,4.94,0,0,0,0,10V36A4.93,4.93,0,0,0,4.93,40.9H40.84A4.94,4.94,0,0,0,45.78,36V10A4.94,4.94,0,0,0,40.84,5Z"/>
            <path d="M8.54,17.36a4.12,4.12,0,1,0,4.12-4.11,4.13,4.13,0,0,0-4.12,4.11Zm5.88,0a1.76,1.76,0,1,1-1.76-1.75,1.76,1.76,0,0,1,1.76,1.75Z"/>
            <path d="M12.66,22.33A6.13,6.13,0,0,0,7.2,25.45a14.09,14.09,0,0,0-1.68,5.93,1.18,1.18,0,0,0,2.35.21c.42-4.58,2-6.9,4.79-6.9S17,27,17.44,31.59a1.19,1.19,0,0,0,1.17,1.07h.11a1.18,1.18,0,0,0,1.07-1.28,14,14,0,0,0-1.68-5.93,6.13,6.13,0,0,0-5.45-3.11Z"/>
            <path d="M37.47,15.45H24.3a1.18,1.18,0,0,0,0,2.36H37.47a1.18,1.18,0,0,0,0-2.36Z"/>
            <path d="M38.65,25.07a1.18,1.18,0,0,0-1.18-1.18H24.3a1.18,1.18,0,0,0,0,2.36H37.47a1.18,1.18,0,0,0,1.18-1.18Z"/>
            <path d="M24.3,28.1a1.18,1.18,0,1,0,0,2.36h6.59a1.18,1.18,0,0,0,0-2.36Z"/>
            <path d="M37.47,19.65H24.3a1.18,1.18,0,1,0,0,2.36H37.47a1.18,1.18,0,1,0,0-2.36Z"/>
        </g>
    </g>
</svg>